<svg viewBox="0 0 280 118" xmlns="http://www.w3.org/2000/svg" class="bracelet-svg bracelet-svg--twist">
  <g id="bracelet-1" class="bracelet-layer" data-bracelet="1">
    <!-- Base shape -->
    <ellipse class="bracelet-fill bracelet-base" cx="140" cy="93" rx="115" ry="6.5" fill="#E5E5E5"/>
    <!-- Twist texture overlay -->
    <g class="twist-texture">
    <path class="bracelet-fill" d="M 25.0 91.0
      Q 34.6 96.0 44.2 91.0" fill="none" stroke="#E5E5E5" stroke-width="10" stroke-linecap="round"/>
    <path d="M 25.0 91.0
      Q 34.6 96.0 44.2 91.0" fill="none" stroke="rgba(255,255,255,0.3)" stroke-width="3" stroke-linecap="round"/>
    <path class="bracelet-fill" d="M 44.2 95.0
      Q 53.8 90.0 63.3 95.0" fill="none" stroke="#E5E5E5" stroke-width="10" stroke-linecap="round"/>
    <path d="M 44.2 95.0
      Q 53.8 90.0 63.3 95.0" fill="none" stroke="rgba(0,0,0,0.1)" stroke-width="3" stroke-linecap="round"/>
    <path class="bracelet-fill" d="M 63.3 91.0
      Q 72.9 96.0 82.5 91.0" fill="none" stroke="#E5E5E5" stroke-width="10" stroke-linecap="round"/>
    <path d="M 63.3 91.0
      Q 72.9 96.0 82.5 91.0" fill="none" stroke="rgba(255,255,255,0.3)" stroke-width="3" stroke-linecap="round"/>
    <path class="bracelet-fill" d="M 82.5 95.0
      Q 92.1 90.0 101.7 95.0" fill="none" stroke="#E5E5E5" stroke-width="10" stroke-linecap="round"/>
    <path d="M 82.5 95.0
      Q 92.1 90.0 101.7 95.0" fill="none" stroke="rgba(0,0,0,0.1)" stroke-width="3" stroke-linecap="round"/>
    <path class="bracelet-fill" d="M 101.7 91.0
      Q 111.3 96.0 120.8 91.0" fill="none" stroke="#E5E5E5" stroke-width="10" stroke-linecap="round"/>
    <path d="M 101.7 91.0
      Q 111.3 96.0 120.8 91.0" fill="none" stroke="rgba(255,255,255,0.3)" stroke-width="3" stroke-linecap="round"/>
    <path class="bracelet-fill" d="M 120.8 95.0
      Q 130.4 90.0 140.0 95.0" fill="none" stroke="#E5E5E5" stroke-width="10" stroke-linecap="round"/>
    <path d="M 120.8 95.0
      Q 130.4 90.0 140.0 95.0" fill="none" stroke="rgba(0,0,0,0.1)" stroke-width="3" stroke-linecap="round"/>
    <path class="bracelet-fill" d="M 140.0 91.0
      Q 149.6 96.0 159.2 91.0" fill="none" stroke="#E5E5E5" stroke-width="10" stroke-linecap="round"/>
    <path d="M 140.0 91.0
      Q 149.6 96.0 159.2 91.0" fill="none" stroke="rgba(255,255,255,0.3)" stroke-width="3" stroke-linecap="round"/>
    <path class="bracelet-fill" d="M 159.2 95.0
      Q 168.8 90.0 178.3 95.0" fill="none" stroke="#E5E5E5" stroke-width="10" stroke-linecap="round"/>
    <path d="M 159.2 95.0
      Q 168.8 90.0 178.3 95.0" fill="none" stroke="rgba(0,0,0,0.1)" stroke-width="3" stroke-linecap="round"/>
    <path class="bracelet-fill" d="M 178.3 91.0
      Q 187.9 96.0 197.5 91.0" fill="none" stroke="#E5E5E5" stroke-width="10" stroke-linecap="round"/>
    <path d="M 178.3 91.0
      Q 187.9 96.0 197.5 91.0" fill="none" stroke="rgba(255,255,255,0.3)" stroke-width="3" stroke-linecap="round"/>
    <path class="bracelet-fill" d="M 197.5 95.0
      Q 207.1 90.0 216.7 95.0" fill="none" stroke="#E5E5E5" stroke-width="10" stroke-linecap="round"/>
    <path d="M 197.5 95.0
      Q 207.1 90.0 216.7 95.0" fill="none" stroke="rgba(0,0,0,0.1)" stroke-width="3" stroke-linecap="round"/>
    <path class="bracelet-fill" d="M 216.7 91.0
      Q 226.3 96.0 235.8 91.0" fill="none" stroke="#E5E5E5" stroke-width="10" stroke-linecap="round"/>
    <path d="M 216.7 91.0
      Q 226.3 96.0 235.8 91.0" fill="none" stroke="rgba(255,255,255,0.3)" stroke-width="3" stroke-linecap="round"/>
    <path class="bracelet-fill" d="M 235.8 95.0
      Q 245.4 90.0 255.0 95.0" fill="none" stroke="#E5E5E5" stroke-width="10" stroke-linecap="round"/>
    <path d="M 235.8 95.0
      Q 245.4 90.0 255.0 95.0" fill="none" stroke="rgba(0,0,0,0.1)" stroke-width="3" stroke-linecap="round"/>
    </g>
    <!-- Top highlight -->
    <ellipse cx="140" cy="91" rx="95" ry="3.25" fill="none" stroke="rgba(255,255,255,0.25)" stroke-width="2"/>
  </g>
  <g id="bracelet-2" class="bracelet-layer" data-bracelet="2">
    <!-- Base shape -->
    <ellipse class="bracelet-fill bracelet-base" cx="140" cy="76" rx="115" ry="6.5" fill="#E5E5E5"/>
    <!-- Twist texture overlay -->
    <g class="twist-texture">
    <path class="bracelet-fill" d="M 25.0 74.0
      Q 34.6 79.0 44.2 74.0" fill="none" stroke="#E5E5E5" stroke-width="10" stroke-linecap="round"/>
    <path d="M 25.0 74.0
      Q 34.6 79.0 44.2 74.0" fill="none" stroke="rgba(255,255,255,0.3)" stroke-width="3" stroke-linecap="round"/>
    <path class="bracelet-fill" d="M 44.2 78.0
      Q 53.8 73.0 63.3 78.0" fill="none" stroke="#E5E5E5" stroke-width="10" stroke-linecap="round"/>
    <path d="M 44.2 78.0
      Q 53.8 73.0 63.3 78.0" fill="none" stroke="rgba(0,0,0,0.1)" stroke-width="3" stroke-linecap="round"/>
    <path class="bracelet-fill" d="M 63.3 74.0
      Q 72.9 79.0 82.5 74.0" fill="none" stroke="#E5E5E5" stroke-width="10" stroke-linecap="round"/>
    <path d="M 63.3 74.0
      Q 72.9 79.0 82.5 74.0" fill="none" stroke="rgba(255,255,255,0.3)" stroke-width="3" stroke-linecap="round"/>
    <path class="bracelet-fill" d="M 82.5 78.0
      Q 92.1 73.0 101.7 78.0" fill="none" stroke="#E5E5E5" stroke-width="10" stroke-linecap="round"/>
    <path d="M 82.5 78.0
      Q 92.1 73.0 101.7 78.0" fill="none" stroke="rgba(0,0,0,0.1)" stroke-width="3" stroke-linecap="round"/>
    <path class="bracelet-fill" d="M 101.7 74.0
      Q 111.3 79.0 120.8 74.0" fill="none" stroke="#E5E5E5" stroke-width="10" stroke-linecap="round"/>
    <path d="M 101.7 74.0
      Q 111.3 79.0 120.8 74.0" fill="none" stroke="rgba(255,255,255,0.3)" stroke-width="3" stroke-linecap="round"/>
    <path class="bracelet-fill" d="M 120.8 78.0
      Q 130.4 73.0 140.0 78.0" fill="none" stroke="#E5E5E5" stroke-width="10" stroke-linecap="round"/>
    <path d="M 120.8 78.0
      Q 130.4 73.0 140.0 78.0" fill="none" stroke="rgba(0,0,0,0.1)" stroke-width="3" stroke-linecap="round"/>
    <path class="bracelet-fill" d="M 140.0 74.0
      Q 149.6 79.0 159.2 74.0" fill="none" stroke="#E5E5E5" stroke-width="10" stroke-linecap="round"/>
    <path d="M 140.0 74.0
      Q 149.6 79.0 159.2 74.0" fill="none" stroke="rgba(255,255,255,0.3)" stroke-width="3" stroke-linecap="round"/>
    <path class="bracelet-fill" d="M 159.2 78.0
      Q 168.8 73.0 178.3 78.0" fill="none" stroke="#E5E5E5" stroke-width="10" stroke-linecap="round"/>
    <path d="M 159.2 78.0
      Q 168.8 73.0 178.3 78.0" fill="none" stroke="rgba(0,0,0,0.1)" stroke-width="3" stroke-linecap="round"/>
    <path class="bracelet-fill" d="M 178.3 74.0
      Q 187.9 79.0 197.5 74.0" fill="none" stroke="#E5E5E5" stroke-width="10" stroke-linecap="round"/>
    <path d="M 178.3 74.0
      Q 187.9 79.0 197.5 74.0" fill="none" stroke="rgba(255,255,255,0.3)" stroke-width="3" stroke-linecap="round"/>
    <path class="bracelet-fill" d="M 197.5 78.0
      Q 207.1 73.0 216.7 78.0" fill="none" stroke="#E5E5E5" stroke-width="10" stroke-linecap="round"/>
    <path d="M 197.5 78.0
      Q 207.1 73.0 216.7 78.0" fill="none" stroke="rgba(0,0,0,0.1)" stroke-width="3" stroke-linecap="round"/>
    <path class="bracelet-fill" d="M 216.7 74.0
      Q 226.3 79.0 235.8 74.0" fill="none" stroke="#E5E5E5" stroke-width="10" stroke-linecap="round"/>
    <path d="M 216.7 74.0
      Q 226.3 79.0 235.8 74.0" fill="none" stroke="rgba(255,255,255,0.3)" stroke-width="3" stroke-linecap="round"/>
    <path class="bracelet-fill" d="M 235.8 78.0
      Q 245.4 73.0 255.0 78.0" fill="none" stroke="#E5E5E5" stroke-width="10" stroke-linecap="round"/>
    <path d="M 235.8 78.0
      Q 245.4 73.0 255.0 78.0" fill="none" stroke="rgba(0,0,0,0.1)" stroke-width="3" stroke-linecap="round"/>
    </g>
    <!-- Top highlight -->
    <ellipse cx="140" cy="74" rx="95" ry="3.25" fill="none" stroke="rgba(255,255,255,0.25)" stroke-width="2"/>
  </g>
  <g id="bracelet-3" class="bracelet-layer" data-bracelet="3">
    <!-- Base shape -->
    <ellipse class="bracelet-fill bracelet-base" cx="140" cy="59" rx="115" ry="6.5" fill="#E5E5E5"/>
    <!-- Twist texture overlay -->
    <g class="twist-texture">
    <path class="bracelet-fill" d="M 25.0 57.0
      Q 34.6 62.0 44.2 57.0" fill="none" stroke="#E5E5E5" stroke-width="10" stroke-linecap="round"/>
    <path d="M 25.0 57.0
      Q 34.6 62.0 44.2 57.0" fill="none" stroke="rgba(255,255,255,0.3)" stroke-width="3" stroke-linecap="round"/>
    <path class="bracelet-fill" d="M 44.2 61.0
      Q 53.8 56.0 63.3 61.0" fill="none" stroke="#E5E5E5" stroke-width="10" stroke-linecap="round"/>
    <path d="M 44.2 61.0
      Q 53.8 56.0 63.3 61.0" fill="none" stroke="rgba(0,0,0,0.1)" stroke-width="3" stroke-linecap="round"/>
    <path class="bracelet-fill" d="M 63.3 57.0
      Q 72.9 62.0 82.5 57.0" fill="none" stroke="#E5E5E5" stroke-width="10" stroke-linecap="round"/>
    <path d="M 63.3 57.0
      Q 72.9 62.0 82.5 57.0" fill="none" stroke="rgba(255,255,255,0.3)" stroke-width="3" stroke-linecap="round"/>
    <path class="bracelet-fill" d="M 82.5 61.0
      Q 92.1 56.0 101.7 61.0" fill="none" stroke="#E5E5E5" stroke-width="10" stroke-linecap="round"/>
    <path d="M 82.5 61.0
      Q 92.1 56.0 101.7 61.0" fill="none" stroke="rgba(0,0,0,0.1)" stroke-width="3" stroke-linecap="round"/>
    <path class="bracelet-fill" d="M 101.7 57.0
      Q 111.3 62.0 120.8 57.0" fill="none" stroke="#E5E5E5" stroke-width="10" stroke-linecap="round"/>
    <path d="M 101.7 57.0
      Q 111.3 62.0 120.8 57.0" fill="none" stroke="rgba(255,255,255,0.3)" stroke-width="3" stroke-linecap="round"/>
    <path class="bracelet-fill" d="M 120.8 61.0
      Q 130.4 56.0 140.0 61.0" fill="none" stroke="#E5E5E5" stroke-width="10" stroke-linecap="round"/>
    <path d="M 120.8 61.0
      Q 130.4 56.0 140.0 61.0" fill="none" stroke="rgba(0,0,0,0.1)" stroke-width="3" stroke-linecap="round"/>
    <path class="bracelet-fill" d="M 140.0 57.0
      Q 149.6 62.0 159.2 57.0" fill="none" stroke="#E5E5E5" stroke-width="10" stroke-linecap="round"/>
    <path d="M 140.0 57.0
      Q 149.6 62.0 159.2 57.0" fill="none" stroke="rgba(255,255,255,0.3)" stroke-width="3" stroke-linecap="round"/>
    <path class="bracelet-fill" d="M 159.2 61.0
      Q 168.8 56.0 178.3 61.0" fill="none" stroke="#E5E5E5" stroke-width="10" stroke-linecap="round"/>
    <path d="M 159.2 61.0
      Q 168.8 56.0 178.3 61.0" fill="none" stroke="rgba(0,0,0,0.1)" stroke-width="3" stroke-linecap="round"/>
    <path class="bracelet-fill" d="M 178.3 57.0
      Q 187.9 62.0 197.5 57.0" fill="none" stroke="#E5E5E5" stroke-width="10" stroke-linecap="round"/>
    <path d="M 178.3 57.0
      Q 187.9 62.0 197.5 57.0" fill="none" stroke="rgba(255,255,255,0.3)" stroke-width="3" stroke-linecap="round"/>
    <path class="bracelet-fill" d="M 197.5 61.0
      Q 207.1 56.0 216.7 61.0" fill="none" stroke="#E5E5E5" stroke-width="10" stroke-linecap="round"/>
    <path d="M 197.5 61.0
      Q 207.1 56.0 216.7 61.0" fill="none" stroke="rgba(0,0,0,0.1)" stroke-width="3" stroke-linecap="round"/>
    <path class="bracelet-fill" d="M 216.7 57.0
      Q 226.3 62.0 235.8 57.0" fill="none" stroke="#E5E5E5" stroke-width="10" stroke-linecap="round"/>
    <path d="M 216.7 57.0
      Q 226.3 62.0 235.8 57.0" fill="none" stroke="rgba(255,255,255,0.3)" stroke-width="3" stroke-linecap="round"/>
    <path class="bracelet-fill" d="M 235.8 61.0
      Q 245.4 56.0 255.0 61.0" fill="none" stroke="#E5E5E5" stroke-width="10" stroke-linecap="round"/>
    <path d="M 235.8 61.0
      Q 245.4 56.0 255.0 61.0" fill="none" stroke="rgba(0,0,0,0.1)" stroke-width="3" stroke-linecap="round"/>
    </g>
    <!-- Top highlight -->
    <ellipse cx="140" cy="57" rx="95" ry="3.25" fill="none" stroke="rgba(255,255,255,0.25)" stroke-width="2"/>
  </g>
  <g id="bracelet-4" class="bracelet-layer" data-bracelet="4">
    <!-- Base shape -->
    <ellipse class="bracelet-fill bracelet-base" cx="140" cy="42" rx="115" ry="6.5" fill="#E5E5E5"/>
    <!-- Twist texture overlay -->
    <g class="twist-texture">
    <path class="bracelet-fill" d="M 25.0 40.0
      Q 34.6 45.0 44.2 40.0" fill="none" stroke="#E5E5E5" stroke-width="10" stroke-linecap="round"/>
    <path d="M 25.0 40.0
      Q 34.6 45.0 44.2 40.0" fill="none" stroke="rgba(255,255,255,0.3)" stroke-width="3" stroke-linecap="round"/>
    <path class="bracelet-fill" d="M 44.2 44.0
      Q 53.8 39.0 63.3 44.0" fill="none" stroke="#E5E5E5" stroke-width="10" stroke-linecap="round"/>
    <path d="M 44.2 44.0
      Q 53.8 39.0 63.3 44.0" fill="none" stroke="rgba(0,0,0,0.1)" stroke-width="3" stroke-linecap="round"/>
    <path class="bracelet-fill" d="M 63.3 40.0
      Q 72.9 45.0 82.5 40.0" fill="none" stroke="#E5E5E5" stroke-width="10" stroke-linecap="round"/>
    <path d="M 63.3 40.0
      Q 72.9 45.0 82.5 40.0" fill="none" stroke="rgba(255,255,255,0.3)" stroke-width="3" stroke-linecap="round"/>
    <path class="bracelet-fill" d="M 82.5 44.0
      Q 92.1 39.0 101.7 44.0" fill="none" stroke="#E5E5E5" stroke-width="10" stroke-linecap="round"/>
    <path d="M 82.5 44.0
      Q 92.1 39.0 101.7 44.0" fill="none" stroke="rgba(0,0,0,0.1)" stroke-width="3" stroke-linecap="round"/>
    <path class="bracelet-fill" d="M 101.7 40.0
      Q 111.3 45.0 120.8 40.0" fill="none" stroke="#E5E5E5" stroke-width="10" stroke-linecap="round"/>
    <path d="M 101.7 40.0
      Q 111.3 45.0 120.8 40.0" fill="none" stroke="rgba(255,255,255,0.3)" stroke-width="3" stroke-linecap="round"/>
    <path class="bracelet-fill" d="M 120.8 44.0
      Q 130.4 39.0 140.0 44.0" fill="none" stroke="#E5E5E5" stroke-width="10" stroke-linecap="round"/>
    <path d="M 120.8 44.0
      Q 130.4 39.0 140.0 44.0" fill="none" stroke="rgba(0,0,0,0.1)" stroke-width="3" stroke-linecap="round"/>
    <path class="bracelet-fill" d="M 140.0 40.0
      Q 149.6 45.0 159.2 40.0" fill="none" stroke="#E5E5E5" stroke-width="10" stroke-linecap="round"/>
    <path d="M 140.0 40.0
      Q 149.6 45.0 159.2 40.0" fill="none" stroke="rgba(255,255,255,0.3)" stroke-width="3" stroke-linecap="round"/>
    <path class="bracelet-fill" d="M 159.2 44.0
      Q 168.8 39.0 178.3 44.0" fill="none" stroke="#E5E5E5" stroke-width="10" stroke-linecap="round"/>
    <path d="M 159.2 44.0
      Q 168.8 39.0 178.3 44.0" fill="none" stroke="rgba(0,0,0,0.1)" stroke-width="3" stroke-linecap="round"/>
    <path class="bracelet-fill" d="M 178.3 40.0
      Q 187.9 45.0 197.5 40.0" fill="none" stroke="#E5E5E5" stroke-width="10" stroke-linecap="round"/>
    <path d="M 178.3 40.0
      Q 187.9 45.0 197.5 40.0" fill="none" stroke="rgba(255,255,255,0.3)" stroke-width="3" stroke-linecap="round"/>
    <path class="bracelet-fill" d="M 197.5 44.0
      Q 207.1 39.0 216.7 44.0" fill="none" stroke="#E5E5E5" stroke-width="10" stroke-linecap="round"/>
    <path d="M 197.5 44.0
      Q 207.1 39.0 216.7 44.0" fill="none" stroke="rgba(0,0,0,0.1)" stroke-width="3" stroke-linecap="round"/>
    <path class="bracelet-fill" d="M 216.7 40.0
      Q 226.3 45.0 235.8 40.0" fill="none" stroke="#E5E5E5" stroke-width="10" stroke-linecap="round"/>
    <path d="M 216.7 40.0
      Q 226.3 45.0 235.8 40.0" fill="none" stroke="rgba(255,255,255,0.3)" stroke-width="3" stroke-linecap="round"/>
    <path class="bracelet-fill" d="M 235.8 44.0
      Q 245.4 39.0 255.0 44.0" fill="none" stroke="#E5E5E5" stroke-width="10" stroke-linecap="round"/>
    <path d="M 235.8 44.0
      Q 245.4 39.0 255.0 44.0" fill="none" stroke="rgba(0,0,0,0.1)" stroke-width="3" stroke-linecap="round"/>
    </g>
    <!-- Top highlight -->
    <ellipse cx="140" cy="40" rx="95" ry="3.25" fill="none" stroke="rgba(255,255,255,0.25)" stroke-width="2"/>
  </g>
  <g id="bracelet-5" class="bracelet-layer" data-bracelet="5">
    <!-- Base shape -->
    <ellipse class="bracelet-fill bracelet-base" cx="140" cy="25" rx="115" ry="6.5" fill="#E5E5E5"/>
    <!-- Twist texture overlay -->
    <g class="twist-texture">
    <path class="bracelet-fill" d="M 25.0 23.0
      Q 34.6 28.0 44.2 23.0" fill="none" stroke="#E5E5E5" stroke-width="10" stroke-linecap="round"/>
    <path d="M 25.0 23.0
      Q 34.6 28.0 44.2 23.0" fill="none" stroke="rgba(255,255,255,0.3)" stroke-width="3" stroke-linecap="round"/>
    <path class="bracelet-fill" d="M 44.2 27.0
      Q 53.8 22.0 63.3 27.0" fill="none" stroke="#E5E5E5" stroke-width="10" stroke-linecap="round"/>
    <path d="M 44.2 27.0
      Q 53.8 22.0 63.3 27.0" fill="none" stroke="rgba(0,0,0,0.1)" stroke-width="3" stroke-linecap="round"/>
    <path class="bracelet-fill" d="M 63.3 23.0
      Q 72.9 28.0 82.5 23.0" fill="none" stroke="#E5E5E5" stroke-width="10" stroke-linecap="round"/>
    <path d="M 63.3 23.0
      Q 72.9 28.0 82.5 23.0" fill="none" stroke="rgba(255,255,255,0.3)" stroke-width="3" stroke-linecap="round"/>
    <path class="bracelet-fill" d="M 82.5 27.0
      Q 92.1 22.0 101.7 27.0" fill="none" stroke="#E5E5E5" stroke-width="10" stroke-linecap="round"/>
    <path d="M 82.5 27.0
      Q 92.1 22.0 101.7 27.0" fill="none" stroke="rgba(0,0,0,0.1)" stroke-width="3" stroke-linecap="round"/>
    <path class="bracelet-fill" d="M 101.7 23.0
      Q 111.3 28.0 120.8 23.0" fill="none" stroke="#E5E5E5" stroke-width="10" stroke-linecap="round"/>
    <path d="M 101.7 23.0
      Q 111.3 28.0 120.8 23.0" fill="none" stroke="rgba(255,255,255,0.3)" stroke-width="3" stroke-linecap="round"/>
    <path class="bracelet-fill" d="M 120.8 27.0
      Q 130.4 22.0 140.0 27.0" fill="none" stroke="#E5E5E5" stroke-width="10" stroke-linecap="round"/>
    <path d="M 120.8 27.0
      Q 130.4 22.0 140.0 27.0" fill="none" stroke="rgba(0,0,0,0.1)" stroke-width="3" stroke-linecap="round"/>
    <path class="bracelet-fill" d="M 140.0 23.0
      Q 149.6 28.0 159.2 23.0" fill="none" stroke="#E5E5E5" stroke-width="10" stroke-linecap="round"/>
    <path d="M 140.0 23.0
      Q 149.6 28.0 159.2 23.0" fill="none" stroke="rgba(255,255,255,0.3)" stroke-width="3" stroke-linecap="round"/>
    <path class="bracelet-fill" d="M 159.2 27.0
      Q 168.8 22.0 178.3 27.0" fill="none" stroke="#E5E5E5" stroke-width="10" stroke-linecap="round"/>
    <path d="M 159.2 27.0
      Q 168.8 22.0 178.3 27.0" fill="none" stroke="rgba(0,0,0,0.1)" stroke-width="3" stroke-linecap="round"/>
    <path class="bracelet-fill" d="M 178.3 23.0
      Q 187.9 28.0 197.5 23.0" fill="none" stroke="#E5E5E5" stroke-width="10" stroke-linecap="round"/>
    <path d="M 178.3 23.0
      Q 187.9 28.0 197.5 23.0" fill="none" stroke="rgba(255,255,255,0.3)" stroke-width="3" stroke-linecap="round"/>
    <path class="bracelet-fill" d="M 197.5 27.0
      Q 207.1 22.0 216.7 27.0" fill="none" stroke="#E5E5E5" stroke-width="10" stroke-linecap="round"/>
    <path d="M 197.5 27.0
      Q 207.1 22.0 216.7 27.0" fill="none" stroke="rgba(0,0,0,0.1)" stroke-width="3" stroke-linecap="round"/>
    <path class="bracelet-fill" d="M 216.7 23.0
      Q 226.3 28.0 235.8 23.0" fill="none" stroke="#E5E5E5" stroke-width="10" stroke-linecap="round"/>
    <path d="M 216.7 23.0
      Q 226.3 28.0 235.8 23.0" fill="none" stroke="rgba(255,255,255,0.3)" stroke-width="3" stroke-linecap="round"/>
    <path class="bracelet-fill" d="M 235.8 27.0
      Q 245.4 22.0 255.0 27.0" fill="none" stroke="#E5E5E5" stroke-width="10" stroke-linecap="round"/>
    <path d="M 235.8 27.0
      Q 245.4 22.0 255.0 27.0" fill="none" stroke="rgba(0,0,0,0.1)" stroke-width="3" stroke-linecap="round"/>
    </g>
    <!-- Top highlight -->
    <ellipse cx="140" cy="23" rx="95" ry="3.25" fill="none" stroke="rgba(255,255,255,0.25)" stroke-width="2"/>
  </g>
</svg>