<svg viewBox="0 0 280 156" xmlns="http://www.w3.org/2000/svg" class="bracelet-svg bracelet-svg--beaded">
  <g id="bracelet-1" class="bracelet-layer" data-bracelet="1">
    <circle class="bracelet-fill" cx="25.0" cy="130.0" r="8" fill="#E5E5E5"/>
    <circle cx="25.0" cy="130" r="7" fill="none" stroke="rgba(255,255,255,0.4)" stroke-width="1.5"/>
    <circle cx="25.0" cy="131.0" r="6" fill="none" stroke="rgba(0,0,0,0.1)" stroke-width="1"/>
    <circle class="bracelet-fill" cx="28.3" cy="128.6" r="8" fill="#E5E5E5"/>
    <circle cx="28.3" cy="128.6" r="7" fill="none" stroke="rgba(255,255,255,0.4)" stroke-width="1.5"/>
    <circle cx="28.3" cy="129.6" r="6" fill="none" stroke="rgba(0,0,0,0.1)" stroke-width="1"/>
    <circle class="bracelet-fill" cx="38.2" cy="127.2" r="8" fill="#E5E5E5"/>
    <circle cx="38.2" cy="127.2" r="7" fill="none" stroke="rgba(255,255,255,0.4)" stroke-width="1.5"/>
    <circle cx="38.2" cy="128.2" r="6" fill="none" stroke="rgba(0,0,0,0.1)" stroke-width="1"/>
    <circle class="bracelet-fill" cx="53.9" cy="126.0" r="8" fill="#E5E5E5"/>
    <circle cx="53.9" cy="126" r="7" fill="none" stroke="rgba(255,255,255,0.4)" stroke-width="1.5"/>
    <circle cx="53.9" cy="127.0" r="6" fill="none" stroke="rgba(0,0,0,0.1)" stroke-width="1"/>
    <circle class="bracelet-fill" cx="74.7" cy="125.1" r="8" fill="#E5E5E5"/>
    <circle cx="74.7" cy="125.1" r="7" fill="none" stroke="rgba(255,255,255,0.4)" stroke-width="1.5"/>
    <circle cx="74.7" cy="126.1" r="6" fill="none" stroke="rgba(0,0,0,0.1)" stroke-width="1"/>
    <circle class="bracelet-fill" cx="99.2" cy="124.4" r="8" fill="#E5E5E5"/>
    <circle cx="99.2" cy="124.4" r="7" fill="none" stroke="rgba(255,255,255,0.4)" stroke-width="1.5"/>
    <circle cx="99.2" cy="125.4" r="6" fill="none" stroke="rgba(0,0,0,0.1)" stroke-width="1"/>
    <circle class="bracelet-fill" cx="126.1" cy="124.0" r="8" fill="#E5E5E5"/>
    <circle cx="126.1" cy="124" r="7" fill="none" stroke="rgba(255,255,255,0.4)" stroke-width="1.5"/>
    <circle cx="126.1" cy="125.0" r="6" fill="none" stroke="rgba(0,0,0,0.1)" stroke-width="1"/>
    <circle class="bracelet-fill" cx="153.9" cy="124.0" r="8" fill="#E5E5E5"/>
    <circle cx="153.9" cy="124" r="7" fill="none" stroke="rgba(255,255,255,0.4)" stroke-width="1.5"/>
    <circle cx="153.9" cy="125.0" r="6" fill="none" stroke="rgba(0,0,0,0.1)" stroke-width="1"/>
    <circle class="bracelet-fill" cx="180.8" cy="124.4" r="8" fill="#E5E5E5"/>
    <circle cx="180.8" cy="124.4" r="7" fill="none" stroke="rgba(255,255,255,0.4)" stroke-width="1.5"/>
    <circle cx="180.8" cy="125.4" r="6" fill="none" stroke="rgba(0,0,0,0.1)" stroke-width="1"/>
    <circle class="bracelet-fill" cx="205.3" cy="125.1" r="8" fill="#E5E5E5"/>
    <circle cx="205.3" cy="125.1" r="7" fill="none" stroke="rgba(255,255,255,0.4)" stroke-width="1.5"/>
    <circle cx="205.3" cy="126.1" r="6" fill="none" stroke="rgba(0,0,0,0.1)" stroke-width="1"/>
    <circle class="bracelet-fill" cx="226.1" cy="126.0" r="8" fill="#E5E5E5"/>
    <circle cx="226.1" cy="126" r="7" fill="none" stroke="rgba(255,255,255,0.4)" stroke-width="1.5"/>
    <circle cx="226.1" cy="127.0" r="6" fill="none" stroke="rgba(0,0,0,0.1)" stroke-width="1"/>
    <circle class="bracelet-fill" cx="241.8" cy="127.2" r="8" fill="#E5E5E5"/>
    <circle cx="241.8" cy="127.2" r="7" fill="none" stroke="rgba(255,255,255,0.4)" stroke-width="1.5"/>
    <circle cx="241.8" cy="128.2" r="6" fill="none" stroke="rgba(0,0,0,0.1)" stroke-width="1"/>
    <circle class="bracelet-fill" cx="251.7" cy="128.6" r="8" fill="#E5E5E5"/>
    <circle cx="251.7" cy="128.6" r="7" fill="none" stroke="rgba(255,255,255,0.4)" stroke-width="1.5"/>
    <circle cx="251.7" cy="129.6" r="6" fill="none" stroke="rgba(0,0,0,0.1)" stroke-width="1"/>
    <circle class="bracelet-fill" cx="255.0" cy="130.0" r="8" fill="#E5E5E5"/>
    <circle cx="255.0" cy="130" r="7" fill="none" stroke="rgba(255,255,255,0.4)" stroke-width="1.5"/>
    <circle cx="255.0" cy="131.0" r="6" fill="none" stroke="rgba(0,0,0,0.1)" stroke-width="1"/>
  </g>
  <g id="bracelet-2" class="bracelet-layer" data-bracelet="2">
    <circle class="bracelet-fill" cx="25.0" cy="104.0" r="8" fill="#E5E5E5"/>
    <circle cx="25.0" cy="104" r="7" fill="none" stroke="rgba(255,255,255,0.4)" stroke-width="1.5"/>
    <circle cx="25.0" cy="105.0" r="6" fill="none" stroke="rgba(0,0,0,0.1)" stroke-width="1"/>
    <circle class="bracelet-fill" cx="28.3" cy="102.6" r="8" fill="#E5E5E5"/>
    <circle cx="28.3" cy="102.6" r="7" fill="none" stroke="rgba(255,255,255,0.4)" stroke-width="1.5"/>
    <circle cx="28.3" cy="103.6" r="6" fill="none" stroke="rgba(0,0,0,0.1)" stroke-width="1"/>
    <circle class="bracelet-fill" cx="38.2" cy="101.2" r="8" fill="#E5E5E5"/>
    <circle cx="38.2" cy="101.2" r="7" fill="none" stroke="rgba(255,255,255,0.4)" stroke-width="1.5"/>
    <circle cx="38.2" cy="102.2" r="6" fill="none" stroke="rgba(0,0,0,0.1)" stroke-width="1"/>
    <circle class="bracelet-fill" cx="53.9" cy="100.0" r="8" fill="#E5E5E5"/>
    <circle cx="53.9" cy="100" r="7" fill="none" stroke="rgba(255,255,255,0.4)" stroke-width="1.5"/>
    <circle cx="53.9" cy="101.0" r="6" fill="none" stroke="rgba(0,0,0,0.1)" stroke-width="1"/>
    <circle class="bracelet-fill" cx="74.7" cy="99.1" r="8" fill="#E5E5E5"/>
    <circle cx="74.7" cy="99.1" r="7" fill="none" stroke="rgba(255,255,255,0.4)" stroke-width="1.5"/>
    <circle cx="74.7" cy="100.1" r="6" fill="none" stroke="rgba(0,0,0,0.1)" stroke-width="1"/>
    <circle class="bracelet-fill" cx="99.2" cy="98.4" r="8" fill="#E5E5E5"/>
    <circle cx="99.2" cy="98.4" r="7" fill="none" stroke="rgba(255,255,255,0.4)" stroke-width="1.5"/>
    <circle cx="99.2" cy="99.4" r="6" fill="none" stroke="rgba(0,0,0,0.1)" stroke-width="1"/>
    <circle class="bracelet-fill" cx="126.1" cy="98.0" r="8" fill="#E5E5E5"/>
    <circle cx="126.1" cy="98" r="7" fill="none" stroke="rgba(255,255,255,0.4)" stroke-width="1.5"/>
    <circle cx="126.1" cy="99.0" r="6" fill="none" stroke="rgba(0,0,0,0.1)" stroke-width="1"/>
    <circle class="bracelet-fill" cx="153.9" cy="98.0" r="8" fill="#E5E5E5"/>
    <circle cx="153.9" cy="98" r="7" fill="none" stroke="rgba(255,255,255,0.4)" stroke-width="1.5"/>
    <circle cx="153.9" cy="99.0" r="6" fill="none" stroke="rgba(0,0,0,0.1)" stroke-width="1"/>
    <circle class="bracelet-fill" cx="180.8" cy="98.4" r="8" fill="#E5E5E5"/>
    <circle cx="180.8" cy="98.4" r="7" fill="none" stroke="rgba(255,255,255,0.4)" stroke-width="1.5"/>
    <circle cx="180.8" cy="99.4" r="6" fill="none" stroke="rgba(0,0,0,0.1)" stroke-width="1"/>
    <circle class="bracelet-fill" cx="205.3" cy="99.1" r="8" fill="#E5E5E5"/>
    <circle cx="205.3" cy="99.1" r="7" fill="none" stroke="rgba(255,255,255,0.4)" stroke-width="1.5"/>
    <circle cx="205.3" cy="100.1" r="6" fill="none" stroke="rgba(0,0,0,0.1)" stroke-width="1"/>
    <circle class="bracelet-fill" cx="226.1" cy="100.0" r="8" fill="#E5E5E5"/>
    <circle cx="226.1" cy="100" r="7" fill="none" stroke="rgba(255,255,255,0.4)" stroke-width="1.5"/>
    <circle cx="226.1" cy="101.0" r="6" fill="none" stroke="rgba(0,0,0,0.1)" stroke-width="1"/>
    <circle class="bracelet-fill" cx="241.8" cy="101.2" r="8" fill="#E5E5E5"/>
    <circle cx="241.8" cy="101.2" r="7" fill="none" stroke="rgba(255,255,255,0.4)" stroke-width="1.5"/>
    <circle cx="241.8" cy="102.2" r="6" fill="none" stroke="rgba(0,0,0,0.1)" stroke-width="1"/>
    <circle class="bracelet-fill" cx="251.7" cy="102.6" r="8" fill="#E5E5E5"/>
    <circle cx="251.7" cy="102.6" r="7" fill="none" stroke="rgba(255,255,255,0.4)" stroke-width="1.5"/>
    <circle cx="251.7" cy="103.6" r="6" fill="none" stroke="rgba(0,0,0,0.1)" stroke-width="1"/>
    <circle class="bracelet-fill" cx="255.0" cy="104.0" r="8" fill="#E5E5E5"/>
    <circle cx="255.0" cy="104" r="7" fill="none" stroke="rgba(255,255,255,0.4)" stroke-width="1.5"/>
    <circle cx="255.0" cy="105.0" r="6" fill="none" stroke="rgba(0,0,0,0.1)" stroke-width="1"/>
  </g>
  <g id="bracelet-3" class="bracelet-layer" data-bracelet="3">
    <circle class="bracelet-fill" cx="25.0" cy="78.0" r="8" fill="#E5E5E5"/>
    <circle cx="25.0" cy="78" r="7" fill="none" stroke="rgba(255,255,255,0.4)" stroke-width="1.5"/>
    <circle cx="25.0" cy="79.0" r="6" fill="none" stroke="rgba(0,0,0,0.1)" stroke-width="1"/>
    <circle class="bracelet-fill" cx="28.3" cy="76.6" r="8" fill="#E5E5E5"/>
    <circle cx="28.3" cy="76.6" r="7" fill="none" stroke="rgba(255,255,255,0.4)" stroke-width="1.5"/>
    <circle cx="28.3" cy="77.6" r="6" fill="none" stroke="rgba(0,0,0,0.1)" stroke-width="1"/>
    <circle class="bracelet-fill" cx="38.2" cy="75.2" r="8" fill="#E5E5E5"/>
    <circle cx="38.2" cy="75.2" r="7" fill="none" stroke="rgba(255,255,255,0.4)" stroke-width="1.5"/>
    <circle cx="38.2" cy="76.2" r="6" fill="none" stroke="rgba(0,0,0,0.1)" stroke-width="1"/>
    <circle class="bracelet-fill" cx="53.9" cy="74.0" r="8" fill="#E5E5E5"/>
    <circle cx="53.9" cy="74" r="7" fill="none" stroke="rgba(255,255,255,0.4)" stroke-width="1.5"/>
    <circle cx="53.9" cy="75.0" r="6" fill="none" stroke="rgba(0,0,0,0.1)" stroke-width="1"/>
    <circle class="bracelet-fill" cx="74.7" cy="73.1" r="8" fill="#E5E5E5"/>
    <circle cx="74.7" cy="73.1" r="7" fill="none" stroke="rgba(255,255,255,0.4)" stroke-width="1.5"/>
    <circle cx="74.7" cy="74.1" r="6" fill="none" stroke="rgba(0,0,0,0.1)" stroke-width="1"/>
    <circle class="bracelet-fill" cx="99.2" cy="72.4" r="8" fill="#E5E5E5"/>
    <circle cx="99.2" cy="72.4" r="7" fill="none" stroke="rgba(255,255,255,0.4)" stroke-width="1.5"/>
    <circle cx="99.2" cy="73.4" r="6" fill="none" stroke="rgba(0,0,0,0.1)" stroke-width="1"/>
    <circle class="bracelet-fill" cx="126.1" cy="72.0" r="8" fill="#E5E5E5"/>
    <circle cx="126.1" cy="72" r="7" fill="none" stroke="rgba(255,255,255,0.4)" stroke-width="1.5"/>
    <circle cx="126.1" cy="73.0" r="6" fill="none" stroke="rgba(0,0,0,0.1)" stroke-width="1"/>
    <circle class="bracelet-fill" cx="153.9" cy="72.0" r="8" fill="#E5E5E5"/>
    <circle cx="153.9" cy="72" r="7" fill="none" stroke="rgba(255,255,255,0.4)" stroke-width="1.5"/>
    <circle cx="153.9" cy="73.0" r="6" fill="none" stroke="rgba(0,0,0,0.1)" stroke-width="1"/>
    <circle class="bracelet-fill" cx="180.8" cy="72.4" r="8" fill="#E5E5E5"/>
    <circle cx="180.8" cy="72.4" r="7" fill="none" stroke="rgba(255,255,255,0.4)" stroke-width="1.5"/>
    <circle cx="180.8" cy="73.4" r="6" fill="none" stroke="rgba(0,0,0,0.1)" stroke-width="1"/>
    <circle class="bracelet-fill" cx="205.3" cy="73.1" r="8" fill="#E5E5E5"/>
    <circle cx="205.3" cy="73.1" r="7" fill="none" stroke="rgba(255,255,255,0.4)" stroke-width="1.5"/>
    <circle cx="205.3" cy="74.1" r="6" fill="none" stroke="rgba(0,0,0,0.1)" stroke-width="1"/>
    <circle class="bracelet-fill" cx="226.1" cy="74.0" r="8" fill="#E5E5E5"/>
    <circle cx="226.1" cy="74" r="7" fill="none" stroke="rgba(255,255,255,0.4)" stroke-width="1.5"/>
    <circle cx="226.1" cy="75.0" r="6" fill="none" stroke="rgba(0,0,0,0.1)" stroke-width="1"/>
    <circle class="bracelet-fill" cx="241.8" cy="75.2" r="8" fill="#E5E5E5"/>
    <circle cx="241.8" cy="75.2" r="7" fill="none" stroke="rgba(255,255,255,0.4)" stroke-width="1.5"/>
    <circle cx="241.8" cy="76.2" r="6" fill="none" stroke="rgba(0,0,0,0.1)" stroke-width="1"/>
    <circle class="bracelet-fill" cx="251.7" cy="76.6" r="8" fill="#E5E5E5"/>
    <circle cx="251.7" cy="76.6" r="7" fill="none" stroke="rgba(255,255,255,0.4)" stroke-width="1.5"/>
    <circle cx="251.7" cy="77.6" r="6" fill="none" stroke="rgba(0,0,0,0.1)" stroke-width="1"/>
    <circle class="bracelet-fill" cx="255.0" cy="78.0" r="8" fill="#E5E5E5"/>
    <circle cx="255.0" cy="78" r="7" fill="none" stroke="rgba(255,255,255,0.4)" stroke-width="1.5"/>
    <circle cx="255.0" cy="79.0" r="6" fill="none" stroke="rgba(0,0,0,0.1)" stroke-width="1"/>
  </g>
  <g id="bracelet-4" class="bracelet-layer" data-bracelet="4">
    <circle class="bracelet-fill" cx="25.0" cy="52.0" r="8" fill="#E5E5E5"/>
    <circle cx="25.0" cy="52" r="7" fill="none" stroke="rgba(255,255,255,0.4)" stroke-width="1.5"/>
    <circle cx="25.0" cy="53.0" r="6" fill="none" stroke="rgba(0,0,0,0.1)" stroke-width="1"/>
    <circle class="bracelet-fill" cx="28.3" cy="50.6" r="8" fill="#E5E5E5"/>
    <circle cx="28.3" cy="50.6" r="7" fill="none" stroke="rgba(255,255,255,0.4)" stroke-width="1.5"/>
    <circle cx="28.3" cy="51.6" r="6" fill="none" stroke="rgba(0,0,0,0.1)" stroke-width="1"/>
    <circle class="bracelet-fill" cx="38.2" cy="49.2" r="8" fill="#E5E5E5"/>
    <circle cx="38.2" cy="49.2" r="7" fill="none" stroke="rgba(255,255,255,0.4)" stroke-width="1.5"/>
    <circle cx="38.2" cy="50.2" r="6" fill="none" stroke="rgba(0,0,0,0.1)" stroke-width="1"/>
    <circle class="bracelet-fill" cx="53.9" cy="48.0" r="8" fill="#E5E5E5"/>
    <circle cx="53.9" cy="48" r="7" fill="none" stroke="rgba(255,255,255,0.4)" stroke-width="1.5"/>
    <circle cx="53.9" cy="49.0" r="6" fill="none" stroke="rgba(0,0,0,0.1)" stroke-width="1"/>
    <circle class="bracelet-fill" cx="74.7" cy="47.1" r="8" fill="#E5E5E5"/>
    <circle cx="74.7" cy="47.1" r="7" fill="none" stroke="rgba(255,255,255,0.4)" stroke-width="1.5"/>
    <circle cx="74.7" cy="48.1" r="6" fill="none" stroke="rgba(0,0,0,0.1)" stroke-width="1"/>
    <circle class="bracelet-fill" cx="99.2" cy="46.4" r="8" fill="#E5E5E5"/>
    <circle cx="99.2" cy="46.4" r="7" fill="none" stroke="rgba(255,255,255,0.4)" stroke-width="1.5"/>
    <circle cx="99.2" cy="47.4" r="6" fill="none" stroke="rgba(0,0,0,0.1)" stroke-width="1"/>
    <circle class="bracelet-fill" cx="126.1" cy="46.0" r="8" fill="#E5E5E5"/>
    <circle cx="126.1" cy="46" r="7" fill="none" stroke="rgba(255,255,255,0.4)" stroke-width="1.5"/>
    <circle cx="126.1" cy="47.0" r="6" fill="none" stroke="rgba(0,0,0,0.1)" stroke-width="1"/>
    <circle class="bracelet-fill" cx="153.9" cy="46.0" r="8" fill="#E5E5E5"/>
    <circle cx="153.9" cy="46" r="7" fill="none" stroke="rgba(255,255,255,0.4)" stroke-width="1.5"/>
    <circle cx="153.9" cy="47.0" r="6" fill="none" stroke="rgba(0,0,0,0.1)" stroke-width="1"/>
    <circle class="bracelet-fill" cx="180.8" cy="46.4" r="8" fill="#E5E5E5"/>
    <circle cx="180.8" cy="46.4" r="7" fill="none" stroke="rgba(255,255,255,0.4)" stroke-width="1.5"/>
    <circle cx="180.8" cy="47.4" r="6" fill="none" stroke="rgba(0,0,0,0.1)" stroke-width="1"/>
    <circle class="bracelet-fill" cx="205.3" cy="47.1" r="8" fill="#E5E5E5"/>
    <circle cx="205.3" cy="47.1" r="7" fill="none" stroke="rgba(255,255,255,0.4)" stroke-width="1.5"/>
    <circle cx="205.3" cy="48.1" r="6" fill="none" stroke="rgba(0,0,0,0.1)" stroke-width="1"/>
    <circle class="bracelet-fill" cx="226.1" cy="48.0" r="8" fill="#E5E5E5"/>
    <circle cx="226.1" cy="48" r="7" fill="none" stroke="rgba(255,255,255,0.4)" stroke-width="1.5"/>
    <circle cx="226.1" cy="49.0" r="6" fill="none" stroke="rgba(0,0,0,0.1)" stroke-width="1"/>
    <circle class="bracelet-fill" cx="241.8" cy="49.2" r="8" fill="#E5E5E5"/>
    <circle cx="241.8" cy="49.2" r="7" fill="none" stroke="rgba(255,255,255,0.4)" stroke-width="1.5"/>
    <circle cx="241.8" cy="50.2" r="6" fill="none" stroke="rgba(0,0,0,0.1)" stroke-width="1"/>
    <circle class="bracelet-fill" cx="251.7" cy="50.6" r="8" fill="#E5E5E5"/>
    <circle cx="251.7" cy="50.6" r="7" fill="none" stroke="rgba(255,255,255,0.4)" stroke-width="1.5"/>
    <circle cx="251.7" cy="51.6" r="6" fill="none" stroke="rgba(0,0,0,0.1)" stroke-width="1"/>
    <circle class="bracelet-fill" cx="255.0" cy="52.0" r="8" fill="#E5E5E5"/>
    <circle cx="255.0" cy="52" r="7" fill="none" stroke="rgba(255,255,255,0.4)" stroke-width="1.5"/>
    <circle cx="255.0" cy="53.0" r="6" fill="none" stroke="rgba(0,0,0,0.1)" stroke-width="1"/>
  </g>
  <g id="bracelet-5" class="bracelet-layer" data-bracelet="5">
    <circle class="bracelet-fill" cx="25.0" cy="26.0" r="8" fill="#E5E5E5"/>
    <circle cx="25.0" cy="26" r="7" fill="none" stroke="rgba(255,255,255,0.4)" stroke-width="1.5"/>
    <circle cx="25.0" cy="27.0" r="6" fill="none" stroke="rgba(0,0,0,0.1)" stroke-width="1"/>
    <circle class="bracelet-fill" cx="28.3" cy="24.6" r="8" fill="#E5E5E5"/>
    <circle cx="28.3" cy="24.6" r="7" fill="none" stroke="rgba(255,255,255,0.4)" stroke-width="1.5"/>
    <circle cx="28.3" cy="25.6" r="6" fill="none" stroke="rgba(0,0,0,0.1)" stroke-width="1"/>
    <circle class="bracelet-fill" cx="38.2" cy="23.2" r="8" fill="#E5E5E5"/>
    <circle cx="38.2" cy="23.2" r="7" fill="none" stroke="rgba(255,255,255,0.4)" stroke-width="1.5"/>
    <circle cx="38.2" cy="24.2" r="6" fill="none" stroke="rgba(0,0,0,0.1)" stroke-width="1"/>
    <circle class="bracelet-fill" cx="53.9" cy="22.0" r="8" fill="#E5E5E5"/>
    <circle cx="53.9" cy="22" r="7" fill="none" stroke="rgba(255,255,255,0.4)" stroke-width="1.5"/>
    <circle cx="53.9" cy="23.0" r="6" fill="none" stroke="rgba(0,0,0,0.1)" stroke-width="1"/>
    <circle class="bracelet-fill" cx="74.7" cy="21.1" r="8" fill="#E5E5E5"/>
    <circle cx="74.7" cy="21.1" r="7" fill="none" stroke="rgba(255,255,255,0.4)" stroke-width="1.5"/>
    <circle cx="74.7" cy="22.1" r="6" fill="none" stroke="rgba(0,0,0,0.1)" stroke-width="1"/>
    <circle class="bracelet-fill" cx="99.2" cy="20.4" r="8" fill="#E5E5E5"/>
    <circle cx="99.2" cy="20.4" r="7" fill="none" stroke="rgba(255,255,255,0.4)" stroke-width="1.5"/>
    <circle cx="99.2" cy="21.4" r="6" fill="none" stroke="rgba(0,0,0,0.1)" stroke-width="1"/>
    <circle class="bracelet-fill" cx="126.1" cy="20.0" r="8" fill="#E5E5E5"/>
    <circle cx="126.1" cy="20" r="7" fill="none" stroke="rgba(255,255,255,0.4)" stroke-width="1.5"/>
    <circle cx="126.1" cy="21.0" r="6" fill="none" stroke="rgba(0,0,0,0.1)" stroke-width="1"/>
    <circle class="bracelet-fill" cx="153.9" cy="20.0" r="8" fill="#E5E5E5"/>
    <circle cx="153.9" cy="20" r="7" fill="none" stroke="rgba(255,255,255,0.4)" stroke-width="1.5"/>
    <circle cx="153.9" cy="21.0" r="6" fill="none" stroke="rgba(0,0,0,0.1)" stroke-width="1"/>
    <circle class="bracelet-fill" cx="180.8" cy="20.4" r="8" fill="#E5E5E5"/>
    <circle cx="180.8" cy="20.4" r="7" fill="none" stroke="rgba(255,255,255,0.4)" stroke-width="1.5"/>
    <circle cx="180.8" cy="21.4" r="6" fill="none" stroke="rgba(0,0,0,0.1)" stroke-width="1"/>
    <circle class="bracelet-fill" cx="205.3" cy="21.1" r="8" fill="#E5E5E5"/>
    <circle cx="205.3" cy="21.1" r="7" fill="none" stroke="rgba(255,255,255,0.4)" stroke-width="1.5"/>
    <circle cx="205.3" cy="22.1" r="6" fill="none" stroke="rgba(0,0,0,0.1)" stroke-width="1"/>
    <circle class="bracelet-fill" cx="226.1" cy="22.0" r="8" fill="#E5E5E5"/>
    <circle cx="226.1" cy="22" r="7" fill="none" stroke="rgba(255,255,255,0.4)" stroke-width="1.5"/>
    <circle cx="226.1" cy="23.0" r="6" fill="none" stroke="rgba(0,0,0,0.1)" stroke-width="1"/>
    <circle class="bracelet-fill" cx="241.8" cy="23.2" r="8" fill="#E5E5E5"/>
    <circle cx="241.8" cy="23.2" r="7" fill="none" stroke="rgba(255,255,255,0.4)" stroke-width="1.5"/>
    <circle cx="241.8" cy="24.2" r="6" fill="none" stroke="rgba(0,0,0,0.1)" stroke-width="1"/>
    <circle class="bracelet-fill" cx="251.7" cy="24.6" r="8" fill="#E5E5E5"/>
    <circle cx="251.7" cy="24.6" r="7" fill="none" stroke="rgba(255,255,255,0.4)" stroke-width="1.5"/>
    <circle cx="251.7" cy="25.6" r="6" fill="none" stroke="rgba(0,0,0,0.1)" stroke-width="1"/>
    <circle class="bracelet-fill" cx="255.0" cy="26.0" r="8" fill="#E5E5E5"/>
    <circle cx="255.0" cy="26" r="7" fill="none" stroke="rgba(255,255,255,0.4)" stroke-width="1.5"/>
    <circle cx="255.0" cy="27.0" r="6" fill="none" stroke="rgba(0,0,0,0.1)" stroke-width="1"/>
  </g>
</svg>