<svg viewBox="0 0 280 118" xmlns="http://www.w3.org/2000/svg" class="bracelet-svg bracelet-svg--silicone">
  <defs>
    <filter id="bracelet-shadow-6" x="-10%" y="-10%" width="120%" height="130%">
      <feDropShadow dx="0" dy="2" stdDeviation="2" flood-opacity="0.15"/>
    </filter>
  </defs>
  <g id="bracelet-1" class="bracelet-layer" data-bracelet="1">
    <!-- Band fill -->
    <ellipse class="bracelet-fill" cx="140" cy="94" rx="120" ry="14" fill="#E5E5E5"/>
    <!-- Inner edge shadow -->
    <ellipse cx="140" cy="96" rx="112" ry="10" fill="none" stroke="rgba(0,0,0,0.08)" stroke-width="3"/>
    <!-- Top highlight -->
    <path d="M 40 92
    Q 140 78 240 92" fill="none" stroke="rgba(255,255,255,0.5)" stroke-width="4" stroke-linecap="round"/>
    <!-- Bottom shadow -->
    <path d="M 30 98
    Q 140 106 250 98" fill="none" stroke="rgba(0,0,0,0.1)" stroke-width="2" stroke-linecap="round"/>
  </g>
  <g id="bracelet-2" class="bracelet-layer" data-bracelet="2">
    <!-- Band fill -->
    <ellipse class="bracelet-fill" cx="140" cy="80" rx="120" ry="14" fill="#E5E5E5"/>
    <!-- Inner edge shadow -->
    <ellipse cx="140" cy="82" rx="112" ry="10" fill="none" stroke="rgba(0,0,0,0.08)" stroke-width="3"/>
    <!-- Top highlight -->
    <path d="M 40 78
    Q 140 64 240 78" fill="none" stroke="rgba(255,255,255,0.5)" stroke-width="4" stroke-linecap="round"/>
    <!-- Bottom shadow -->
    <path d="M 30 84
    Q 140 92 250 84" fill="none" stroke="rgba(0,0,0,0.1)" stroke-width="2" stroke-linecap="round"/>
  </g>
  <g id="bracelet-3" class="bracelet-layer" data-bracelet="3">
    <!-- Band fill -->
    <ellipse class="bracelet-fill" cx="140" cy="66" rx="120" ry="14" fill="#E5E5E5"/>
    <!-- Inner edge shadow -->
    <ellipse cx="140" cy="68" rx="112" ry="10" fill="none" stroke="rgba(0,0,0,0.08)" stroke-width="3"/>
    <!-- Top highlight -->
    <path d="M 40 64
    Q 140 50 240 64" fill="none" stroke="rgba(255,255,255,0.5)" stroke-width="4" stroke-linecap="round"/>
    <!-- Bottom shadow -->
    <path d="M 30 70
    Q 140 78 250 70" fill="none" stroke="rgba(0,0,0,0.1)" stroke-width="2" stroke-linecap="round"/>
  </g>
  <g id="bracelet-4" class="bracelet-layer" data-bracelet="4">
    <!-- Band fill -->
    <ellipse class="bracelet-fill" cx="140" cy="52" rx="120" ry="14" fill="#E5E5E5"/>
    <!-- Inner edge shadow -->
    <ellipse cx="140" cy="54" rx="112" ry="10" fill="none" stroke="rgba(0,0,0,0.08)" stroke-width="3"/>
    <!-- Top highlight -->
    <path d="M 40 50
    Q 140 36 240 50" fill="none" stroke="rgba(255,255,255,0.5)" stroke-width="4" stroke-linecap="round"/>
    <!-- Bottom shadow -->
    <path d="M 30 56
    Q 140 64 250 56" fill="none" stroke="rgba(0,0,0,0.1)" stroke-width="2" stroke-linecap="round"/>
  </g>
  <g id="bracelet-5" class="bracelet-layer" data-bracelet="5">
    <!-- Band fill -->
    <ellipse class="bracelet-fill" cx="140" cy="38" rx="120" ry="14" fill="#E5E5E5"/>
    <!-- Inner edge shadow -->
    <ellipse cx="140" cy="40" rx="112" ry="10" fill="none" stroke="rgba(0,0,0,0.08)" stroke-width="3"/>
    <!-- Top highlight -->
    <path d="M 40 36
    Q 140 22 240 36" fill="none" stroke="rgba(255,255,255,0.5)" stroke-width="4" stroke-linecap="round"/>
    <!-- Bottom shadow -->
    <path d="M 30 42
    Q 140 50 250 42" fill="none" stroke="rgba(0,0,0,0.1)" stroke-width="2" stroke-linecap="round"/>
  </g>
  <g id="bracelet-6" class="bracelet-layer" data-bracelet="6">
    <!-- Band fill -->
    <ellipse class="bracelet-fill" cx="140" cy="24" rx="120" ry="14" fill="#E5E5E5"/>
    <!-- Inner edge shadow -->
    <ellipse cx="140" cy="26" rx="112" ry="10" fill="none" stroke="rgba(0,0,0,0.08)" stroke-width="3"/>
    <!-- Top highlight -->
    <path d="M 40 22
    Q 140 8 240 22" fill="none" stroke="rgba(255,255,255,0.5)" stroke-width="4" stroke-linecap="round"/>
    <!-- Bottom shadow -->
    <path d="M 30 28
    Q 140 36 250 28" fill="none" stroke="rgba(0,0,0,0.1)" stroke-width="2" stroke-linecap="round"/>
  </g>
</svg>